<?xml version="1.0" standalone="no"?>
<!DOCTYPE svg PUBLIC "-//W3C//DTD SVG 1.1//EN" "http://www.w3.org/Graphics/SVG/1.1/DTD/svg11.dtd" >
<svg xmlns="http://www.w3.org/2000/svg">
<defs>
  <font id="ooneex" horiz-adv-x="256">
    <font-face font-family="ooneex"
      units-per-em="256" ascent="256"
      descent="0" />
    <missing-glyph horiz-adv-x="0" />
    <glyph glyph-name="heart"
      unicode="&#xEA02;"
      horiz-adv-x="256" d="M178.6666666666667 224A61.5893333333333 61.5893333333333 0 0 1 128 197.1253333333334A61.2853333333333 61.2853333333333 0 0 1 16 162.6666666666667A60.9173333333333 60.9173333333333 0 0 1 33.312 120L124.1066666666667 23.0186666666667A5.3333333333333 5.3333333333333 0 0 1 131.8933333333333 23.0186666666667L222.6133333333333 119.9253333333334A61.3013333333333 61.3013333333333 0 0 1 178.6666666666667 224z" />
    <glyph glyph-name="cart"
      unicode="&#xEA03;"
      horiz-adv-x="256" d="M201.0133333333333 85.3333333333333H87.8346666666667C74.6506666666667 85.3333333333333 63.3013333333333 95.1733333333334 61.4346666666667 108.224L43.376 234.6666666666667H10.6666666666667C7.7173333333333 234.6666666666667 5.3333333333333 237.056 5.3333333333333 240S7.7173333333333 245.3333333333334 10.6666666666667 245.3333333333334H48C50.656 245.3333333333334 52.9066666666667 243.3813333333334 53.28 240.7573333333333L57.9573333333333 208H240C241.5893333333334 208 243.0933333333334 207.2906666666667 244.112 206.0693333333333C245.12 204.8426666666667 245.5413333333334 203.232 245.2426666666667 201.6693333333333L227.2106666666667 107.0133333333333C224.8213333333334 94.4533333333333 213.8026666666667 85.3333333333333 201.0186666666667 85.3333333333333zM80 10.6666666666667C65.296 10.6666666666667 53.3333333333333 22.6293333333334 53.3333333333333 37.3333333333333S65.296 64 80 64S106.6666666666667 52.0373333333333 106.6666666666667 37.3333333333333S94.704 10.6666666666667 80 10.6666666666667zM213.3333333333333 10.6666666666667C198.6293333333333 10.6666666666667 186.6666666666667 22.6293333333334 186.6666666666667 37.3333333333333S198.6293333333333 64 213.3333333333333 64S240 52.0373333333333 240 37.3333333333333S228.0373333333333 10.6666666666667 213.3333333333333 10.6666666666667z" />
    <glyph glyph-name="user"
      unicode="&#xEA04;"
      horiz-adv-x="256" d="M174.784 116.576C161.6106666666667 107.0293333333333 145.4773333333333 101.3333333333333 128 101.3333333333333S94.3893333333333 107.0293333333333 81.216 116.576C37.1466666666667 101.504 5.3333333333333 59.776 5.3333333333333 10.6666666666667C5.3333333333333 7.7226666666667 7.7226666666667 5.3333333333333 10.6666666666667 5.3333333333333H245.3333333333333C248.2773333333333 5.3333333333333 250.6666666666667 7.7226666666667 250.6666666666667 10.6666666666667C250.6666666666667 59.776 218.8533333333333 101.504 174.784 116.576zM128 250.6666666666667C89.7706666666667 250.6666666666667 58.6666666666667 219.5626666666667 58.6666666666667 181.3333333333334S89.7706666666667 112 128 112S197.3333333333333 143.104 197.3333333333333 181.3333333333333S166.2293333333333 250.6666666666667 128 250.6666666666667z" />
    <glyph glyph-name="star"
      unicode="&#xEA05;"
      horiz-adv-x="256" d="M132.8 247.664L167.8026666666667 176.5066666666667L246.048 165.0933333333333A5.392 5.392 0 0 0 249.024 155.904L192.416 100.528L205.7813333333333 22.32A5.3706666666667 5.3706666666667 0 0 0 197.9893333333333 16.6453333333334L128 53.5626666666667L58.0106666666667 16.6346666666667A5.3653333333333 5.3653333333333 0 0 0 50.2186666666667 22.304L63.584 100.528L6.96 155.904A5.392 5.392 0 0 0 9.936 165.0933333333333L88.1813333333333 176.5066666666667L123.2 247.664A5.3333333333333 5.3333333333333 0 0 0 132.8 247.664z" />
    <glyph glyph-name="credit-locked"
      unicode="&#xEA06;"
      horiz-adv-x="256" d="M101.3333333333333 112H48C45.0506666666667 112 42.6666666666667 114.3893333333333 42.6666666666667 117.3333333333334S45.0506666666667 122.6666666666667 48 122.6666666666667H101.3333333333333C104.2826666666667 122.6666666666667 106.6666666666667 120.2773333333334 106.6666666666667 117.3333333333334S104.2826666666667 112 101.3333333333333 112zM229.3333333333333 250.6666666666667H26.6666666666667C14.9013333333333 250.6666666666667 5.3333333333333 241.0986666666667 5.3333333333333 229.3333333333334V90.6666666666667C5.3333333333333 78.9013333333334 14.9013333333333 69.3333333333333 26.6666666666667 69.3333333333333H122.6666666666667V80H26.6666666666667C20.784 80 16 84.784 16 90.6666666666667V160H240V96H250.6666666666667V229.3333333333334C250.6666666666667 241.0986666666667 241.0986666666667 250.6666666666667 229.3333333333333 250.6666666666667zM240 202.6666666666667H16V229.3333333333334C16 235.216 20.784 240 26.6666666666667 240H229.3333333333333C235.216 240 240 235.216 240 229.3333333333334V202.6666666666667zM224 90.6666666666667H208V106.6666666666667C208 121.3706666666667 196.0373333333333 133.3333333333334 181.3333333333334 133.3333333333334S154.6666666666667 121.3706666666667 154.6666666666667 106.6666666666667V90.6666666666667H138.6666666666667C135.7173333333334 90.6666666666667 133.3333333333334 88.2773333333334 133.3333333333334 85.3333333333333V10.6666666666667C133.3333333333334 7.7226666666667 135.7173333333333 5.3333333333333 138.6666666666667 5.3333333333333H224C226.9493333333334 5.3333333333333 229.3333333333334 7.7226666666667 229.3333333333334 10.6666666666667V85.3333333333333C229.3333333333333 88.2773333333333 226.9493333333333 90.6666666666667 224 90.6666666666667zM186.6666666666667 38.3146666666667V26.6666666666667H176V38.3146666666667C169.7973333333334 40.5173333333333 165.3333333333334 46.3786666666667 165.3333333333334 53.3333333333333C165.3333333333334 62.1706666666667 172.496 69.3333333333333 181.3333333333334 69.3333333333333S197.3333333333334 62.1706666666667 197.3333333333334 53.3333333333333C197.3333333333333 46.3786666666667 192.8693333333333 40.5173333333333 186.6666666666667 38.3146666666667zM197.3333333333333 90.6666666666667H165.3333333333333V106.6666666666667C165.3333333333333 115.488 172.512 122.6666666666667 181.3333333333333 122.6666666666667S197.3333333333333 115.488 197.3333333333333 106.6666666666667V90.6666666666667z" />
    <glyph glyph-name="refund"
      unicode="&#xEA07;"
      horiz-adv-x="256" d="M128 250.6666666666667A121.6266666666667 121.6266666666667 0 0 1 56.9013333333333 227.9573333333334L39.4666666666667 242.7466666666667A5.3333333333333 5.3333333333333 0 0 1 30.7253333333333 239.344L23.296 180.32A5.3333333333333 5.3333333333333 0 0 1 30.0213333333333 174.5173333333334L88 190.6666666666667A5.3333333333333 5.3333333333333 0 0 1 90.0213333333333 199.872L73.8506666666667 213.5733333333333A101.28 101.28 0 1 0 26.6666666666667 128A10.6666666666667 10.6666666666667 0 0 1 5.3333333333333 128A122.6666666666667 122.6666666666667 0 1 1 128 250.6666666666667zM99.4986666666667 95.5413333333333L94.32 96.832A2.6666666666667 2.6666666666667 0 0 1 91.088 94.8906666666667L88.5013333333333 84.544A2.6666666666667 2.6666666666667 0 0 1 90.4426666666666 81.312L95.616 80.016A121.8133333333333 121.8133333333333 0 0 1 122.6666666666667 76.0853333333333V58.6666666666667H133.3333333333333V76.5973333333334A41.9626666666667 41.9626666666667 0 0 1 154.5546666666667 84.6773333333334A27.7333333333333 27.7333333333333 0 0 1 165.3333333333333 107.2C165.0773333333333 124.8 146.6666666666667 133.7013333333334 133.3333333333333 136.8266666666667V167.8986666666667A77.6426666666667 77.6426666666667 0 0 0 150.448 165.424L155.5733333333333 163.9466666666667A2.6666666666667 2.6666666666667 0 0 1 158.8746666666667 165.7706666666667L161.8346666666667 176A2.6666666666667 2.6666666666667 0 0 1 160.0106666666667 179.3066666666667L154.8853333333333 180.784A93.808 93.808 0 0 1 133.3333333333333 183.872V197.3333333333334H122.6666666666667V183.4666666666667A43.9893333333333 43.9893333333333 0 0 1 103.9093333333333 177.52A26.496 26.496 0 0 1 91.6426666666667 158.8106666666667C88.1866666666667 136.8906666666667 108.5546666666667 126.1866666666667 122.6506666666667 122.7413333333333V92.1333333333333A107.5093333333334 107.5093333333334 0 0 0 99.4986666666667 95.5413333333333zM149.3333333333333 106.9973333333334A11.7333333333333 11.7333333333333 0 0 0 144.6186666666667 97.2213333333334A24.896 24.896 0 0 0 133.3333333333333 92.8V120.2506666666667C140.6933333333333 117.8666666666667 149.2426666666667 113.376 149.3333333333333 106.9973333333334zM107.456 156.2666666666667A10.8426666666667 10.8426666666667 0 0 0 111.9413333333333 163.6106666666667A25.3333333333333 25.3333333333333 0 0 0 122.6666666666667 167.344V139.4666666666667C115.7333333333333 141.8666666666667 105.9893333333333 146.8853333333333 107.456 156.2666666666667z" />
    <glyph glyph-name="headphones"
      unicode="&#xEA09;"
      horiz-adv-x="256" d="M154.6666666666667 37.3333333333333H90.6666666666667C87.7226666666667 37.3333333333333 85.3333333333333 34.944 85.3333333333333 32V26.6666666666667H74.6666666666667C59.9626666666667 26.6666666666667 48 38.6293333333333 48 53.3333333333333V59.632C44.3253333333333 60.2506666666666 40.768 61.184 37.3333333333333 62.4V53.3333333333333C37.3333333333333 32.7466666666667 54.08 16 74.6666666666667 16H85.3333333333333V10.6666666666667C85.3333333333333 7.7226666666667 87.7226666666667 5.3333333333333 90.6666666666667 5.3333333333333H154.6666666666667C157.6106666666667 5.3333333333333 160 7.7226666666666 160 10.6666666666667V32C160 34.944 157.6106666666667 37.3333333333333 154.6666666666667 37.3333333333333zM218.624 171.536C218.1493333333333 215.248 182.4853333333333 250.6666666666667 138.6666666666667 250.6666666666667H117.3333333333333C73.5146666666667 250.6666666666667 37.8506666666667 215.248 37.376 171.536C18.5386666666667 163.3013333333333 5.3333333333333 144.5066666666667 5.3333333333333 122.6666666666667C5.3333333333333 93.2586666666667 29.2586666666667 69.3333333333334 58.6666666666667 69.3333333333334C62.544 69.3333333333334 66.528 69.792 70.512 70.6933333333334C72.944 71.2426666666667 74.6666666666667 73.4026666666667 74.6666666666667 75.8933333333333V169.44C74.6666666666667 171.9306666666667 72.944 174.0906666666667 70.512 174.64C66.528 175.5413333333334 62.544 176 58.6666666666667 176C55.088 176 51.6 175.632 48.2186666666667 174.96C50.4533333333333 211.1893333333333 80.5493333333333 240 117.3333333333333 240H138.6666666666667C175.4506666666667 240 205.5466666666667 211.1893333333333 207.7813333333333 174.96C204.4 175.632 200.912 176 197.3333333333333 176C193.4506666666667 176 189.4666666666667 175.5413333333334 185.4826666666667 174.6346666666667C183.056 174.0853333333333 181.3333333333333 171.9253333333334 181.3333333333333 169.4346666666667V75.8933333333333C181.3333333333333 73.4026666666667 183.056 71.2426666666667 185.488 70.6933333333333C189.472 69.792 193.456 69.3333333333333 197.3333333333333 69.3333333333333C226.7413333333334 69.3333333333333 250.6666666666667 93.2586666666667 250.6666666666667 122.6666666666667C250.6666666666667 144.5066666666667 237.4613333333334 163.3013333333333 218.624 171.536z" />
    <glyph glyph-name="search"
      unicode="&#xEA0A;"
      horiz-adv-x="256" d="M193.4293333333333 81.4293333333334A13.3333333333333 13.3333333333333 0 0 1 174.5706666666667 62.5706666666667L222.5706666666667 14.5706666666667A13.3333333333333 13.3333333333333 0 0 1 241.4293333333333 33.4293333333333zM101.3333333333333 245.3333333333334A90.6666666666667 90.6666666666667 0 1 1 192 154.6666666666667A90.768 90.768 0 0 1 101.3333333333333 245.3333333333334zM101.3333333333333 74.6666666666667A80 80 0 1 0 181.3333333333333 154.6666666666667A80.0906666666667 80.0906666666667 0 0 0 101.3333333333333 74.6666666666667zM101.3333333333333 213.3333333333334A58.736 58.736 0 0 1 42.6666666666667 154.6666666666667A5.3333333333333 5.3333333333333 0 0 1 53.3333333333333 154.6666666666667A48.0586666666667 48.0586666666667 0 0 0 101.3333333333333 202.6666666666667A5.3333333333333 5.3333333333333 0 0 1 101.3333333333333 213.3333333333334z" />
    <glyph glyph-name="letter"
      unicode="&#xEA0B;"
      horiz-adv-x="256" d="M224 229.3333333333334H32A26.6666666666667 26.6666666666667 0 0 1 5.3333333333333 202.6666666666667V181.3333333333334A5.3333333333333 5.3333333333333 0 0 1 8.112 176.6506666666667L125.4453333333334 112.6506666666667A5.3333333333333 5.3333333333333 0 0 1 130.5546666666667 112.6506666666667L247.888 176.6506666666667A5.3333333333333 5.3333333333333 0 0 1 250.6666666666667 181.3333333333334V202.6666666666667A26.6666666666667 26.6666666666667 0 0 1 224 229.3333333333334zM135.664 103.2853333333333A16 16 0 0 0 120.3573333333333 103.2853333333333L5.456 165.9466666666667L5.3333333333333 165.8666666666667V53.3333333333333A26.6666666666667 26.6666666666667 0 0 1 32 26.6666666666667H224A26.6666666666667 26.6666666666667 0 0 1 250.6666666666667 53.3333333333333V165.8666666666667L250.544 165.9413333333334z" />
    <glyph glyph-name="currency-dollar"
      unicode="&#xEA0C;"
      horiz-adv-x="256" d="M138.6666666666667 144.7733333333334V210.4373333333334A144.832 144.832 0 0 0 176.672 203.504L189.136 198.832L198.5013333333333 223.8026666666667L186.016 228.4853333333334A169.2106666666667 169.2106666666667 0 0 1 138.6666666666667 237.1306666666667V255.7013333333334H117.3333333333333V236.5866666666667C80.8266666666667 232.6453333333334 58.6666666666667 212.2666666666667 58.6666666666667 181.3333333333334C58.6666666666667 146.1706666666667 89.1626666666667 132.9546666666667 117.3333333333333 123.6373333333334V56.4A176.352 176.352 0 0 0 71.1946666666667 65.8826666666667L58.6666666666667 70.4L49.6 45.3333333333333L62.1386666666667 40.8053333333334A203.9093333333333 203.9093333333333 0 0 1 117.3333333333333 29.76V-0.2986666666667H138.6666666666667V29.6266666666667C196.2026666666666 33.1093333333333 202.6666666666667 69.3706666666667 202.6666666666667 85.3333333333333C202.6666666666667 122.736 168.1706666666667 135.3173333333334 138.6666666666667 144.7733333333334zM85.3333333333333 181.3333333333334C85.3333333333333 200.8533333333334 101.9413333333333 207.6586666666667 117.3333333333333 209.7866666666667V151.8826666666667C95.6693333333333 159.7866666666667 85.3333333333333 167.072 85.3333333333333 181.3333333333334zM138.6666666666667 56.3146666666667V116.672C163.9786666666667 107.9893333333334 176 100.7253333333334 176 85.3386666666667C176 77.9146666666667 176 58.976 138.6666666666667 56.3146666666667z" />
    <glyph glyph-name="bookmark"
      unicode="&#xEA0D;"
      horiz-adv-x="256" d="M197.3333333333333 250.6666666666667H58.6666666666667A26.6986666666667 26.6986666666667 0 0 1 32 224V10.6666666666667A5.3333333333333 5.3333333333333 0 0 1 40.0373333333333 6.0693333333334L128 57.8133333333334L215.9626666666667 6.08A5.3333333333333 5.3333333333333 0 0 1 224 10.6666666666667V224A26.6986666666667 26.6986666666667 0 0 1 197.3333333333333 250.6666666666667z" />
    <glyph glyph-name="network-communication"
      unicode="&#xEA0E;"
      horiz-adv-x="256" d="M95.1253333333333 161.0346666666667A53.4346666666667 53.4346666666667 0 0 0 103.056 147.1413333333333L175.1146666666666 188.208A37.0613333333333 37.0613333333333 0 1 1 167.0826666666666 202.0426666666667zM202.6666666666667 80A37.1946666666667 37.1946666666667 0 0 1 175.1146666666667 67.7706666666667L103.056 108.8373333333333A53.4346666666667 53.4346666666667 0 0 0 95.1253333333334 94.944L167.0826666666667 53.9146666666667A37.3333333333333 37.3333333333333 0 1 1 202.6666666666667 80zM53.3333333333333 85.3333333333333A42.6666666666667 42.6666666666667 0 1 0 96 128A42.7146666666667 42.7146666666667 0 0 0 53.3333333333333 85.3333333333333zM53.3333333333333 160A32 32 0 1 1 85.3333333333333 128A32.032 32.032 0 0 1 53.3333333333333 160z" />
    <glyph glyph-name="shopping-bag"
      unicode="&#xEA0F;"
      horiz-adv-x="256" d="M230.592 41.5626666666667L213.2853333333333 171.3706666666667A5.3333333333333 5.3333333333333 0 0 1 208 176H48A5.3333333333333 5.3333333333333 0 0 1 42.7146666666667 171.3706666666667L25.408 41.5626666666667A32 32 0 0 1 57.1253333333333 5.3333333333333H198.8746666666667A32 32 0 0 1 230.592 41.5626666666667zM96 208A32 32 0 0 0 160 208V186.6666666666667H170.6666666666667V208A42.6666666666667 42.6666666666667 0 0 1 85.3333333333333 208V186.6666666666667H96z" />
    <glyph glyph-name="delivery"
      unicode="&#xEA10;"
      horiz-adv-x="256" d="M138.6666666666667 229.3333333333334H10.6666666666667A10.6666666666667 10.6666666666667 0 0 1 0 218.6666666666667V58.6666666666667A10.6666666666667 10.6666666666667 0 0 1 10.6666666666667 48H21.3333333333333A42.6666666666667 42.6666666666667 0 0 0 106.6666666666667 48H144A5.3333333333333 5.3333333333333 0 0 1 149.3333333333334 53.3333333333334V218.6666666666667A10.6666666666667 10.6666666666667 0 0 1 138.6666666666667 229.3333333333334zM255.3493333333334 130.5546666666667L223.3493333333333 189.2213333333333A5.3333333333333 5.3333333333333 0 0 1 218.6666666666667 192H165.3333333333333A5.3333333333333 5.3333333333333 0 0 1 160 186.6666666666667V76.1546666666667A42.624 42.624 0 0 0 234.6666666666667 48H250.6666666666667A5.3333333333333 5.3333333333333 0 0 1 256 53.3333333333333V128A5.3333333333333 5.3333333333333 0 0 1 255.3493333333334 130.5546666666667zM176 128V176H212.3306666666667L238.512 128zM192 16A32 32 0 1 0 224 48A32.032 32.032 0 0 0 192 16zM192 58.6666666666667A10.6666666666667 10.6666666666667 0 1 1 202.6666666666667 48A10.6666666666667 10.6666666666667 0 0 1 192 58.6666666666667zM64 16A32 32 0 1 0 96 48A32.032 32.032 0 0 0 64 16zM64 58.6666666666667A10.6666666666667 10.6666666666667 0 1 1 74.6666666666667 48A10.6666666666667 10.6666666666667 0 0 1 64 58.6666666666667z" />
    <glyph glyph-name="verified"
      unicode="&#xEA11;"
      horiz-adv-x="256" d="M224.8746666666667 234.592L128.8746666666667 250.592A5.3333333333333 5.3333333333333 0 0 1 127.1253333333333 250.592L31.1253333333333 234.592A5.3333333333333 5.3333333333333 0 0 1 26.6666666666667 229.3333333333334V117.3333333333334C26.6666666666667 85.0186666666667 44.032 55.4026666666667 76.8746666666667 31.6746666666667A203.3866666666666 203.3866666666666 0 0 1 126.3146666666667 5.6106666666667A5.2586666666667 5.2586666666667 0 0 1 129.6853333333333 5.6106666666667A203.3866666666666 203.3866666666666 0 0 1 179.1253333333333 31.6746666666667C211.968 55.4026666666667 229.3333333333333 85.0186666666667 229.3333333333333 117.3333333333334V229.3333333333334A5.3333333333333 5.3333333333333 0 0 1 224.8746666666667 234.592zM117.936 80.3146666666667L70.2506666666667 128L85.3333333333333 143.0826666666667L116.7306666666667 111.6853333333334L180.1973333333333 185.7066666666667L196.3946666666666 171.84z" />
    <glyph glyph-name="logo-whatsapp"
      unicode="&#xEA12;"
      horiz-adv-x="256" d="M0.5727466666667 0L18.5749866666667 65.7355733333333C7.4707733333333 84.9722666666667 1.6276266666667 106.7965866666667 1.6367466666667 129.1541333333333C1.6648 199.0971733333333 58.5895466666667 256 128.5320533333333 256C162.4773866666667 255.9865066666667 194.3381866666667 242.77488 218.2956266666667 218.7974933333333C242.2537066666667 194.82016 255.4404266666667 162.9482133333334 255.4272533333334 129.0528533333333C255.3989333333334 59.1098133333333 198.4690666666667 2.19952 128.53376 2.19952H128.5334400000001H128.4814933333334C107.2434666666667 2.2082666666667 86.37584 7.5341333333333 67.84176 17.6397866666667L0.5727466666667 0zM70.9581866666667 40.6061333333333L74.8096533333333 38.3208533333333C91.0027733333333 28.7139733333333 109.5651733333333 23.6317866666667 128.49024 23.6243733333333H128.53344C186.6653333333333 23.6243733333333 233.9788266666667 70.92304 234.0025066666667 129.0610133333333C234.01328 157.2337066666667 223.0531733333334 183.72448 203.1402666666667 203.6536C183.2273066666667 223.5827733333333 156.7459733333333 234.5644266666667 128.57536 234.5752533333333C70.3987733333333 234.5752533333333 23.0849066666667 187.2799466666666 23.0616533333333 129.14608C23.0535466666667 109.2243733333333 28.62976 89.8216533333333 39.1872533333333 73.03424L41.6953066666667 69.04544L31.0402666666667 30.1381333333333L70.9581866666667 40.6061333333333zM96.81792 182.1820266666667C94.2444266666667 188.3628266666667 91.6304 187.52656 89.6841066666667 187.6234666666667C87.8368533333333 187.7154133333334 85.72096 187.7348266666667 83.6072533333333 187.7348266666667S78.0586666666667 186.9416 75.15232 183.76864C72.24608 180.59552 64.0554133333333 172.9269866666667 64.0554133333333 157.3259733333333C64.0554133333333 141.72496 75.4165866666667 126.6529066666667 77.0019733333333 124.5373333333333C78.5872 122.42176 99.35952 90.40608 131.1656533333333 76.6764266666667C138.73024 73.4108266666667 144.63648 71.46096 149.2408 69.9994133333333C156.8366933333333 67.5875733333333 163.74864 67.9277333333334 169.2117866666667 68.7437333333333C175.3033066666667 69.6535466666667 187.9706666666667 76.41184 190.61296 83.8157866666667C193.2549333333333 91.2197333333333 193.2549333333333 97.5660266666667 192.46224 98.8882133333333C191.66992 100.2100266666667 189.5560533333333 101.0034133333333 186.3856 102.5901866666667C183.2148266666667 104.1765866666667 167.6264533333333 111.8450666666667 164.71984 112.9026666666667C161.8136533333333 113.96032 159.7001066666667 114.48912 157.58624 111.3159466666667C155.4727466666666 108.1430933333333 149.3963733333333 101.0034133333333 147.54672 98.8882133333333C145.69744 96.77264 143.8477866666666 96.5081066666667 140.6773333333333 98.0948266666667C137.5065066666667 99.6812266666667 127.29024 103.02848 115.1797333333333 113.8269866666667C105.7544 122.2311466666667 99.39056 132.6117866666667 97.5410666666666 135.78496C95.6916266666666 138.95808 97.34432 140.67376 98.9316266666666 142.25376C100.3577066666666 143.6738133333333 102.10208 145.9557333333334 103.6874666666666 147.80672C105.2726933333333 149.6577066666667 105.8011733333333 150.9798933333333 106.85792 153.0950933333333C107.91488 155.2106666666667 107.3864 157.0616 106.5936533333333 158.6482133333333C105.8011733333333 160.2346666666667 99.4602133333333 175.8358933333333 96.81792 182.1820266666667z" />
    <glyph glyph-name="logo-facebook"
      unicode="&#xEA13;"
      horiz-adv-x="256" d="M250.6666666666667 127.264A122.6666666666667 122.6666666666667 0 1 1 108.832 6.0853333333333V91.808H77.6906666666667V127.264H108.832V154.2933333333334C108.832 185.0346666666667 127.1466666666667 202.016 155.1626666666667 202.016A188.736 188.736 0 0 0 182.624 199.6213333333333V169.4346666666667H167.1573333333333A17.7333333333333 17.7333333333333 0 0 1 147.2533333333333 154.1973333333334A17.9466666666667 17.9466666666667 0 0 1 147.1733333333333 150.2666666666667V127.264H181.1946666666667L175.7546666666667 91.808H147.168V6.0853333333333A122.6666666666667 122.6666666666667 0 0 1 250.6666666666667 127.264z" />
    <glyph glyph-name="logo-instagram"
      unicode="&#xEA14;"
      horiz-adv-x="256" d="M128 219.8186666666667C157.904 219.8186666666667 161.4453333333334 219.7066666666667 173.2586666666667 219.168A62.1333333333333 62.1333333333333 0 0 0 194.0586666666667 215.312A37.088 37.088 0 0 0 215.3173333333334 194.0533333333334A62.1333333333333 62.1333333333333 0 0 0 219.1733333333334 173.2533333333333C219.7066666666667 161.44 219.824 157.8986666666667 219.824 127.9946666666667S219.712 94.5493333333333 219.1733333333334 82.736A62.1333333333333 62.1333333333333 0 0 0 215.3173333333334 61.936A37.088 37.088 0 0 0 194.0586666666667 40.6773333333333A62.1333333333333 62.1333333333333 0 0 0 173.2586666666667 36.8213333333333C161.4506666666667 36.288 157.9093333333333 36.1706666666667 128 36.1706666666667S94.5493333333333 36.2826666666666 82.7413333333333 36.8213333333333A62.1333333333333 62.1333333333333 0 0 0 61.9413333333333 40.6773333333333A37.088 37.088 0 0 0 40.6826666666667 61.936A62.1333333333333 62.1333333333333 0 0 0 36.8266666666667 82.736C36.2933333333333 94.5493333333333 36.176 98.0906666666667 36.176 127.9946666666667S36.288 161.44 36.8266666666667 173.2533333333333A62.1333333333333 62.1333333333333 0 0 0 40.6826666666667 194.0533333333334A37.088 37.088 0 0 0 61.9413333333333 215.312A62.1333333333333 62.1333333333333 0 0 0 82.7413333333333 219.168C94.5546666666667 219.7013333333334 98.096 219.8186666666667 128 219.8186666666667M128 240C97.6 240 93.7706666666667 239.872 81.824 239.328A82.2293333333333 82.2293333333333 0 0 1 54.624 234.1226666666667A54.864 54.864 0 0 1 34.8 221.2A54.864 54.864 0 0 1 21.8666666666667 201.3653333333334A82.2293333333333 82.2293333333333 0 0 1 16.6613333333333 174.1653333333333C16.128 162.2293333333333 16 158.4 16 128S16.128 93.7706666666667 16.672 81.824A82.2293333333333 82.2293333333333 0 0 1 21.8773333333333 54.624A54.864 54.864 0 0 1 34.8 34.7893333333334A54.864 54.864 0 0 1 54.6346666666667 21.8666666666667A82.2293333333333 82.2293333333333 0 0 1 81.8346666666667 16.6613333333333C93.7813333333333 16.128 97.5946666666667 15.9893333333334 128.0106666666667 15.9893333333334S162.24 16.1173333333333 174.1866666666667 16.6613333333333A82.2293333333333 82.2293333333333 0 0 1 201.3866666666666 21.8666666666667A57.328 57.328 0 0 1 234.1333333333334 54.6346666666667A82.2293333333333 82.2293333333333 0 0 1 239.3386666666667 81.8346666666667C239.872 93.7706666666667 240 97.6 240 128S239.872 162.2293333333333 239.328 174.176A82.2293333333333 82.2293333333333 0 0 1 234.1226666666667 201.376A54.864 54.864 0 0 1 221.2 221.2106666666667A54.864 54.864 0 0 1 201.3653333333333 234.1333333333334A82.2293333333333 82.2293333333333 0 0 1 174.1653333333333 239.3386666666667C162.2293333333333 239.872 158.4 240 128 240zM128 185.5146666666667A57.5146666666667 57.5146666666667 0 1 1 185.5146666666667 128A57.5146666666667 57.5146666666667 0 0 1 128 185.5146666666667zM128 90.6666666666667A37.3333333333333 37.3333333333333 0 1 0 165.3333333333333 128A37.3333333333333 37.3333333333333 0 0 0 128 90.6666666666667zM174.3466666666666 187.7866666666667A13.44 13.44 0 0 1 201.2266666666667 187.7866666666667A13.44 13.44 0 0 1 174.3466666666666 187.7866666666667" />
    <glyph glyph-name="copyright"
      unicode="&#xEA15;"
      horiz-adv-x="256" d="M128 5.3333333333333A122.6666666666667 122.6666666666667 0 1 0 250.6666666666667 128A122.8 122.8 0 0 0 128 5.3333333333333zM128 229.3333333333334A101.3333333333333 101.3333333333333 0 1 1 229.3333333333333 128A101.4453333333333 101.4453333333333 0 0 1 128 229.3333333333334zM128 170.6666666666667A39.4666666666667 39.4666666666667 0 0 0 145.9786666666667 166.7786666666667L157.872 160.7626666666667L169.9146666666667 184.5493333333333L158.0213333333333 190.5706666666667A65.8186666666667 65.8186666666667 0 0 1 128 197.3333333333334C87.9253333333333 197.3333333333334 64 171.4186666666667 64 128S87.9253333333333 58.6666666666667 128 58.6666666666667A65.8186666666667 65.8186666666667 0 0 1 158.0213333333333 65.4293333333334L169.9146666666667 71.4506666666667L157.8666666666667 95.2373333333333L145.9733333333333 89.2213333333334A39.4666666666667 39.4666666666667 0 0 0 128 85.3333333333333C118.768 85.3333333333333 90.6666666666667 85.3333333333333 90.6666666666667 128S118.768 170.6666666666667 128 170.6666666666667z" />
    <glyph glyph-name="bucket"
      unicode="&#xEA16;"
      horiz-adv-x="256" d="M229.3333333333333 213.3333333333334C229.3333333333333 237.584 177.1253333333333 250.6666666666667 128 250.6666666666667S26.6666666666667 237.584 26.6666666666667 213.3333333333334A17.0666666666667 17.0666666666667 0 0 1 26.848 210.9333333333333L48.1813333333333 35.824C50.192 15.808 89.8666666666667 5.3333333333333 128 5.3333333333333S205.808 15.808 207.824 35.7333333333334L229.1573333333334 210.9546666666667A17.0666666666667 17.0666666666667 0 0 1 229.3333333333333 213.3333333333334zM128 240C184.1706666666667 240 218.6666666666667 224.4693333333334 218.6666666666667 213.3333333333334S184.1706666666667 186.6666666666667 128 186.6666666666667S37.3333333333333 202.1973333333334 37.3333333333333 213.3333333333334S71.8293333333333 240 128 240z" />
    <glyph glyph-name="remove-favorite"
      unicode="&#xEA17;"
      horiz-adv-x="256" d="M133.3333333333333 90.6666666666667C133.3333333333333 123.0666666666667 159.6 149.3333333333334 192 149.3333333333334C209.8133333333333 149.3333333333334 225.7386666666667 141.3653333333334 236.496 128.832C257.0933333333333 155.984 255.0826666666667 194.9333333333333 230.3253333333333 219.6906666666667C203.296 246.72 159.3066666666667 246.72 132.272 219.6906666666667C130.7733333333333 218.192 129.3333333333333 216.6133333333334 127.9626666666666 214.9546666666667C126.592 216.6133333333334 125.1573333333333 218.1866666666667 123.6533333333333 219.6906666666667C96.624 246.72 52.6346666666667 246.72 25.6 219.6906666666667S-1.4293333333333 148.672 25.6 121.6373333333334L124.1866666666667 23.0506666666667C125.2266666666667 22.0106666666667 126.592 21.488 127.9573333333333 21.488S130.688 22.0106666666667 131.728 23.0506666666667L154.3573333333333 45.68C141.52 56.4426666666667 133.3333333333333 72.592 133.3333333333333 90.6666666666667zM192 138.6666666666667C165.488 138.6666666666667 144 117.1786666666667 144 90.6666666666667S165.488 42.6666666666667 192 42.6666666666667S240 64.1546666666667 240 90.6666666666667S218.512 138.6666666666667 192 138.6666666666667zM218.6666666666667 85.3333333333333H165.3333333333333C162.3893333333333 85.3333333333333 160 87.7226666666667 160 90.6666666666667S162.3893333333333 96 165.3333333333333 96H218.6666666666666C221.6106666666666 96 224 93.6106666666667 224 90.6666666666667S221.6106666666667 85.3333333333333 218.6666666666666 85.3333333333333z" />
    <glyph glyph-name="add-favorite"
      unicode="&#xEA18;"
      horiz-adv-x="256" d="M133.3333333333333 90.6666666666667C133.3333333333333 123.0666666666667 159.6 149.3333333333334 192 149.3333333333334C209.8133333333333 149.3333333333334 225.7386666666667 141.3653333333334 236.496 128.832C257.0933333333333 155.984 255.0826666666667 194.9333333333333 230.3253333333333 219.6906666666667C203.296 246.72 159.3066666666667 246.72 132.272 219.6906666666667C130.7733333333333 218.192 129.3333333333333 216.6133333333334 127.9626666666666 214.9546666666667C126.592 216.6133333333334 125.1573333333333 218.1866666666667 123.6533333333333 219.6906666666667C96.624 246.72 52.6346666666667 246.72 25.6 219.6906666666667S-1.4293333333333 148.672 25.6 121.6373333333334L124.1866666666667 23.0506666666667C125.2266666666667 22.0106666666667 126.592 21.488 127.9573333333333 21.488S130.688 22.0106666666667 131.728 23.0506666666667L154.3573333333333 45.68C141.52 56.4426666666667 133.3333333333333 72.592 133.3333333333333 90.6666666666667zM192 138.6666666666667C165.488 138.6666666666667 144 117.1786666666667 144 90.6666666666667S165.488 42.6666666666667 192 42.6666666666667S240 64.1546666666667 240 90.6666666666667S218.512 138.6666666666667 192 138.6666666666667zM218.6666666666667 85.3333333333333H197.3333333333333V64C197.3333333333333 61.0506666666667 194.944 58.6666666666667 192 58.6666666666667S186.6666666666666 61.0506666666666 186.6666666666666 64V85.3333333333333H165.3333333333333C162.3893333333333 85.3333333333333 160 87.7226666666667 160 90.6666666666667S162.3893333333333 96 165.3333333333333 96H186.6666666666666V117.3333333333334C186.6666666666666 120.2773333333334 189.056 122.6666666666667 192 122.6666666666667S197.3333333333333 120.2773333333334 197.3333333333333 117.3333333333334V96H218.6666666666667C221.6106666666667 96 224 93.6106666666667 224 90.6666666666667S221.6106666666667 85.3333333333333 218.6666666666667 85.3333333333333z" />
    <glyph glyph-name="coupon"
      unicode="&#xEA19;"
      horiz-adv-x="256" d="M149.3333333333333 96A10.6666666666667 10.6666666666667 0 0 1 170.6666666666667 96A10.6666666666667 10.6666666666667 0 0 1 149.3333333333333 96M245.3333333333333 154.6666666666667C248.2773333333333 154.6666666666667 250.6666666666667 157.056 250.6666666666667 160V213.3333333333334C250.6666666666667 216.2773333333333 248.2773333333334 218.6666666666667 245.3333333333333 218.6666666666667H10.6666666666667C7.7226666666667 218.6666666666667 5.3333333333333 216.2773333333333 5.3333333333333 213.3333333333334V160C5.3333333333333 157.056 7.7226666666667 154.6666666666667 10.6666666666667 154.6666666666667C25.872 154.6666666666667 37.3333333333333 143.2053333333333 37.3333333333333 128S25.872 101.3333333333333 10.6666666666667 101.3333333333333C7.7226666666667 101.3333333333333 5.3333333333333 98.944 5.3333333333333 96V42.6666666666667C5.3333333333333 39.7226666666667 7.7226666666667 37.3333333333333 10.6666666666667 37.3333333333333H245.3333333333333C248.2773333333333 37.3333333333333 250.6666666666667 39.7226666666667 250.6666666666667 42.6666666666667V96C250.6666666666667 98.944 248.2773333333334 101.3333333333333 245.3333333333333 101.3333333333333C230.128 101.3333333333333 218.6666666666667 112.7946666666667 218.6666666666667 128S230.128 154.6666666666667 245.3333333333333 154.6666666666667zM74.6666666666667 160C74.6666666666667 171.7653333333333 84.2346666666667 181.3333333333333 96 181.3333333333333S117.3333333333333 171.7653333333333 117.3333333333333 160S107.7653333333333 138.6666666666667 96 138.6666666666667S74.6666666666667 148.2346666666667 74.6666666666667 160zM96 90.6666666666667C94.6346666666667 90.6666666666667 93.2693333333333 91.1893333333334 92.2293333333333 92.2293333333334C90.144 94.3146666666667 90.144 97.6853333333334 92.2293333333333 99.7706666666667L156.2293333333333 163.7706666666667C158.3146666666667 165.8560000000001 161.6853333333333 165.8560000000001 163.7706666666667 163.7706666666667S165.856 158.3146666666667 163.7706666666667 156.2293333333334L99.7706666666667 92.2293333333334C98.7306666666667 91.1893333333333 97.3653333333333 90.6666666666667 96 90.6666666666667zM160 74.6666666666667C148.2346666666667 74.6666666666667 138.6666666666667 84.2346666666667 138.6666666666667 96S148.2346666666667 117.3333333333334 160 117.3333333333334S181.3333333333334 107.7653333333334 181.3333333333334 96S171.7653333333333 74.6666666666667 160 74.6666666666667zM85.3333333333333 160A10.6666666666667 10.6666666666667 0 0 1 106.6666666666667 160A10.6666666666667 10.6666666666667 0 0 1 85.3333333333333 160" />
    <glyph glyph-name="credit-card"
      unicode="&#xEA1A;"
      horiz-adv-x="256" d="M250.6666666666667 170.6666666666667V208C250.6666666666667 213.8933333333333 245.8933333333333 218.6666666666667 240 218.6666666666667H16C10.1066666666667 218.6666666666667 5.3333333333333 213.8933333333334 5.3333333333333 208V170.6666666666667H250.6666666666667zM5.3333333333333 138.6666666666667V48C5.3333333333333 42.1066666666667 10.1066666666667 37.3333333333333 16 37.3333333333333H240C245.8933333333334 37.3333333333333 250.6666666666667 42.1066666666667 250.6666666666667 48V138.6666666666667H5.3333333333333zM96 80H42.6666666666667C39.7226666666667 80 37.3333333333333 82.3893333333333 37.3333333333333 85.3333333333333S39.7226666666667 90.6666666666667 42.6666666666667 90.6666666666667H96C98.944 90.6666666666667 101.3333333333333 88.2773333333334 101.3333333333333 85.3333333333333S98.944 80 96 80zM213.3333333333333 80H186.6666666666667C183.7226666666667 80 181.3333333333333 82.3893333333333 181.3333333333333 85.3333333333333S183.7226666666667 90.6666666666667 186.6666666666667 90.6666666666667H213.3333333333333C216.2773333333333 90.6666666666667 218.6666666666667 88.2773333333334 218.6666666666667 85.3333333333333S216.2773333333333 80 213.3333333333333 80z" />
    <glyph glyph-name="keyboard"
      unicode="&#xEA1B;"
      horiz-adv-x="256" d="M245.3333333333333 197.3333333333334H10.6666666666667C7.7226666666667 197.3333333333334 5.3333333333333 194.9493333333333 5.3333333333333 192V64C5.3333333333333 61.0506666666667 7.7226666666667 58.6666666666667 10.6666666666667 58.6666666666667H245.3333333333333C248.2773333333333 58.6666666666667 250.6666666666667 61.0506666666666 250.6666666666667 64V192C250.6666666666667 194.9493333333334 248.2773333333334 197.3333333333334 245.3333333333333 197.3333333333334zM96 154.6666666666667H106.6666666666667C109.6106666666667 154.6666666666667 112 152.2826666666667 112 149.3333333333334S109.6106666666667 144 106.6666666666667 144H96C93.056 144 90.6666666666667 146.384 90.6666666666667 149.3333333333334S93.056 154.6666666666667 96 154.6666666666667zM53.3333333333333 101.3333333333333H42.6666666666667C39.7226666666667 101.3333333333333 37.3333333333333 103.7173333333333 37.3333333333333 106.6666666666667S39.7226666666667 112 42.6666666666667 112H53.3333333333333C56.2773333333333 112 58.6666666666667 109.616 58.6666666666667 106.6666666666667S56.2773333333333 101.3333333333333 53.3333333333333 101.3333333333333zM53.3333333333333 144H42.6666666666667C39.7226666666667 144 37.3333333333333 146.384 37.3333333333333 149.3333333333333S39.7226666666667 154.6666666666667 42.6666666666667 154.6666666666667H53.3333333333333C56.2773333333333 154.6666666666667 58.6666666666667 152.2826666666667 58.6666666666667 149.3333333333333S56.2773333333333 144 53.3333333333333 144zM160 101.3333333333333H96C93.056 101.3333333333333 90.6666666666667 103.7173333333333 90.6666666666667 106.6666666666667S93.056 112 96 112H160C162.944 112 165.3333333333334 109.616 165.3333333333334 106.6666666666667S162.944 101.3333333333333 160 101.3333333333333zM160 144H149.3333333333334C146.3893333333334 144 144 146.384 144 149.3333333333333S146.3893333333333 154.6666666666667 149.3333333333334 154.6666666666667H160C162.944 154.6666666666667 165.3333333333334 152.2826666666667 165.3333333333334 149.3333333333333S162.944 144 160 144zM213.3333333333333 101.3333333333333H202.6666666666667C199.7226666666667 101.3333333333333 197.3333333333333 103.7173333333333 197.3333333333333 106.6666666666667S199.7226666666667 112 202.6666666666667 112H213.3333333333333C216.2773333333333 112 218.6666666666667 109.616 218.6666666666667 106.6666666666667S216.2773333333333 101.3333333333333 213.3333333333333 101.3333333333333zM213.3333333333333 144H202.6666666666667C199.7226666666667 144 197.3333333333333 146.384 197.3333333333333 149.3333333333333S199.7226666666667 154.6666666666667 202.6666666666667 154.6666666666667H213.3333333333333C216.2773333333333 154.6666666666667 218.6666666666667 152.2826666666667 218.6666666666667 149.3333333333333S216.2773333333333 144 213.3333333333333 144z" />
    <glyph glyph-name="phone"
      unicode="&#xEA1C;"
      horiz-adv-x="256" d="M167.3386666666667 100.4L148.2133333333333 76.4906666666667A201.744 201.744 0 0 0 76.496 148.2026666666667L100.4 167.328A16.2346666666667 16.2346666666667 0 0 1 105.0933333333333 186.6026666666667L83.3013333333333 235.6693333333334A16.2506666666667 16.2506666666667 0 0 1 64.3573333333333 244.8L22.88 234.048A16.336 16.336 0 0 1 10.8213333333333 216A241.0666666666667 241.0666666666667 0 0 1 216 10.816A16.3413333333333 16.3413333333333 0 0 1 234.048 22.8746666666667L244.8 64.3626666666667A16.2613333333333 16.2613333333333 0 0 1 235.6693333333334 83.3013333333333L186.6133333333334 105.0666666666667A16.2453333333333 16.2453333333333 0 0 1 167.3386666666667 100.4z" />
    <glyph glyph-name="home"
      unicode="&#xEA1D;"
      horiz-adv-x="256" d="M128 219.328L32 140.8V26.6666666666667C32 17.8293333333334 39.1626666666667 10.6666666666667 48 10.6666666666667H101.3333333333333V69.3333333333333C101.3333333333333 72.2773333333333 103.7226666666667 74.6666666666667 106.6666666666667 74.6666666666667H149.3333333333333C152.2773333333333 74.6666666666667 154.6666666666667 72.2773333333334 154.6666666666667 69.3333333333333V10.6666666666667H208C216.8373333333333 10.6666666666667 224 17.8293333333334 224 26.6666666666667V140.8L128 219.328zM245.3333333333333 138.6666666666667C244.1066666666667 138.6666666666667 242.912 139.0933333333333 241.9626666666667 139.872L128 233.1093333333333L14.0426666666667 139.872C11.7333333333333 138.0426666666667 8.3786666666667 138.432 6.5493333333333 140.7413333333333C4.7573333333333 142.9973333333333 5.088 146.272 7.2906666666667 148.128L124.624 244.128C126.5866666666667 245.7333333333334 129.4133333333333 245.7333333333334 131.376 244.128L248.7093333333334 148.128C250.9866666666667 146.2613333333334 251.328 142.9013333333333 249.4613333333334 140.624C248.4480000000001 139.3866666666667 246.9333333333334 138.6666666666667 245.3333333333334 138.6666666666667z" />
    <glyph glyph-name="at-sign"
      unicode="&#xEA1E;"
      horiz-adv-x="256" d="M128 253.3333333333334A125.3333333333333 125.3333333333333 0 1 1 178.1333333333333 13.0986666666667L190.352 18.432L179.6853333333334 42.8693333333334L167.4666666666667 37.536A98.6666666666667 98.6666666666667 0 1 0 226.6666666666667 128V104A16 16 0 0 0 194.6666666666667 104V189.3333333333333H168V181.2053333333333A66.624 66.624 0 1 1 174.9333333333333 80.7306666666667A42.6346666666667 42.6346666666667 0 0 1 253.3333333333333 104V128A125.4773333333334 125.4773333333334 0 0 1 128 253.3333333333334zM128 88A40 40 0 1 0 168 128A40.0426666666667 40.0426666666667 0 0 0 128 88z" />
    <glyph glyph-name="floppy-disk"
      unicode="&#xEA1F;"
      horiz-adv-x="256" d="M238.4373333333334 190.4373333333334L190.4373333333333 238.4373333333334A5.3333333333333 5.3333333333333 0 0 1 186.6666666666667 240H165.3333333333333V186.6666666666667A5.3333333333333 5.3333333333333 0 0 0 160 181.3333333333334H58.6666666666667A5.3333333333333 5.3333333333333 0 0 0 53.3333333333333 186.6666666666667V240H42.6666666666667A26.6986666666667 26.6986666666667 0 0 1 16 213.3333333333334V42.6666666666667A26.6986666666667 26.6986666666667 0 0 1 42.6666666666667 16H213.3333333333333A26.6986666666667 26.6986666666667 0 0 1 240 42.6666666666667V186.6666666666667A5.3333333333333 5.3333333333333 0 0 1 238.4373333333334 190.4373333333334zM202.6666666666667 58.6666666666667A5.3333333333333 5.3333333333333 0 0 0 197.3333333333333 53.3333333333333H58.6666666666667A5.3333333333333 5.3333333333333 0 0 0 53.3333333333333 58.6666666666667V117.3333333333334A5.3333333333333 5.3333333333333 0 0 0 58.6666666666667 122.6666666666667H197.3333333333333A5.3333333333333 5.3333333333333 0 0 0 202.6666666666667 117.3333333333334zM149.3333333333333 240H128V202.6666666666667A5.3333333333333 5.3333333333333 0 0 1 133.3333333333334 197.3333333333334H144A5.3333333333333 5.3333333333333 0 0 1 149.3333333333334 202.6666666666667z" />
    <glyph glyph-name="password"
      unicode="&#xEA20;"
      horiz-adv-x="256" d="M176 176H165.3333333333333V202.6666666666667A37.3333333333333 37.3333333333333 0 0 1 90.6666666666667 202.6666666666667V176H80V202.6666666666667A48 48 0 0 0 176 202.6666666666667zM58.6666666666667 21.3333333333333A16 16 0 0 1 90.6666666666667 21.3333333333333A16 16 0 0 1 58.6666666666667 21.3333333333333M112 21.3333333333333A16 16 0 0 1 144 21.3333333333333A16 16 0 0 1 112 21.3333333333333M165.3333333333333 21.3333333333333A16 16 0 0 1 197.3333333333333 21.3333333333333A16 16 0 0 1 165.3333333333333 21.3333333333333M218.6666666666667 21.3333333333333A16 16 0 0 1 250.6666666666667 21.3333333333333A16 16 0 0 1 218.6666666666667 21.3333333333333M5.3333333333333 21.3333333333333A16 16 0 0 1 37.3333333333333 21.3333333333333A16 16 0 0 1 5.3333333333333 21.3333333333333M192 165.3333333333334H64A16 16 0 0 1 48 149.3333333333334V74.6666666666667A16 16 0 0 1 64 58.6666666666667H192A16 16 0 0 1 208 74.6666666666667V149.3333333333334A16 16 0 0 1 192 165.3333333333334zM133.3333333333333 102.0853333333333V85.3333333333333A5.3333333333333 5.3333333333333 0 0 0 122.6666666666667 85.3333333333333V102.0853333333333A21.3333333333333 21.3333333333333 0 1 0 133.3333333333333 102.0853333333333z" />
    <glyph glyph-name="i-remove"
      unicode="&#xEA21;"
      horiz-adv-x="256" d="M166.896 181.984L128 143.088L89.104 181.984C87.0186666666667 184.0693333333334 83.6426666666667 184.0693333333334 81.5626666666667 181.984L74.016 174.4373333333334C71.9306666666667 172.352 71.9306666666667 168.976 74.016 166.896L112.912 128L74.016 89.104C71.9306666666667 87.0186666666667 71.9306666666667 83.6426666666667 74.016 81.5626666666667L81.5626666666667 74.016C83.648 71.9306666666667 87.024 71.9306666666667 89.104 74.016L128 112.912L166.896 74.016C168.9813333333333 71.9306666666667 172.3573333333333 71.9306666666667 174.4373333333333 74.016L181.984 81.5626666666667C184.0693333333333 83.648 184.0693333333333 87.024 181.984 89.104L143.088 128.0000000000001L181.984 166.8960000000001C184.0693333333333 168.9813333333334 184.0693333333333 172.3573333333334 181.984 174.4373333333334L174.4373333333333 181.984C172.352 184.0693333333334 168.976 184.0693333333334 166.896 181.984z" />
    <glyph glyph-name="c-info"
      unicode="&#xEA22;"
      horiz-adv-x="256" d="M128 250.6666666666667C60.2506666666667 250.6666666666667 5.3333333333333 195.7493333333334 5.3333333333333 128S60.2506666666667 5.3333333333333 128 5.3333333333333S250.6666666666667 60.2506666666667 250.6666666666667 128S195.7493333333334 250.6666666666667 128 250.6666666666667zM138.6666666666667 58.6666666666667C138.6666666666667 55.7226666666667 136.2773333333333 53.3333333333333 133.3333333333333 53.3333333333333H122.6666666666667C119.7226666666667 53.3333333333333 117.3333333333333 55.7226666666666 117.3333333333333 58.6666666666667V154.6666666666667C117.3333333333333 157.6106666666667 119.7226666666667 160 122.6666666666667 160H133.3333333333333C136.2773333333333 160 138.6666666666667 157.6106666666667 138.6666666666667 154.6666666666667V58.6666666666667zM128 181.3333333333333C120.6346666666667 181.3333333333333 114.6666666666667 187.3013333333333 114.6666666666667 194.6666666666666S120.6346666666667 208 128 208S141.3333333333333 202.032 141.3333333333333 194.6666666666666S135.3653333333333 181.3333333333333 128 181.3333333333333z" />
    <glyph glyph-name="calendar-date"
      unicode="&#xEA23;"
      horiz-adv-x="256" d="M58.6666666666667 85.3333333333333H90.6666666666667A5.3333333333333 5.3333333333333 0 0 0 96 80V48A5.3333333333333 5.3333333333333 0 0 0 90.6666666666667 42.6666666666667H58.6666666666667A5.3333333333333 5.3333333333333 0 0 0 53.3333333333333 48V80A5.3333333333333 5.3333333333333 0 0 0 58.6666666666667 85.3333333333333zM58.6666666666667 138.6666666666667H90.6666666666667A5.3333333333333 5.3333333333333 0 0 0 96 133.3333333333334V101.3333333333333A5.3333333333333 5.3333333333333 0 0 0 90.6666666666667 96H58.6666666666667A5.3333333333333 5.3333333333333 0 0 0 53.3333333333333 101.3333333333333V133.3333333333334A5.3333333333333 5.3333333333333 0 0 0 58.6666666666667 138.6666666666667zM112 85.3333333333333H144A5.3333333333333 5.3333333333333 0 0 0 149.3333333333334 80V48A5.3333333333333 5.3333333333333 0 0 0 144 42.6666666666667H112A5.3333333333333 5.3333333333333 0 0 0 106.6666666666667 48V80A5.3333333333333 5.3333333333333 0 0 0 112 85.3333333333333zM112 138.6666666666667H144A5.3333333333333 5.3333333333333 0 0 0 149.3333333333334 133.3333333333334V101.3333333333333A5.3333333333333 5.3333333333333 0 0 0 144 96H112A5.3333333333333 5.3333333333333 0 0 0 106.6666666666667 101.3333333333333V133.3333333333334A5.3333333333333 5.3333333333333 0 0 0 112 138.6666666666667zM165.3333333333333 138.6666666666667H197.3333333333333A5.3333333333333 5.3333333333333 0 0 0 202.6666666666667 133.3333333333334V101.3333333333333A5.3333333333333 5.3333333333333 0 0 0 197.3333333333333 96H165.3333333333333A5.3333333333333 5.3333333333333 0 0 0 160 101.3333333333333V133.3333333333334A5.3333333333333 5.3333333333333 0 0 0 165.3333333333333 138.6666666666667zM69.3333333333333 202.6666666666667C66.3893333333333 202.6666666666667 64 205.056 64 208V245.3333333333334C64 248.2773333333334 66.3893333333333 250.6666666666667 69.3333333333333 250.6666666666667S74.6666666666667 248.2773333333334 74.6666666666667 245.3333333333334V208C74.6666666666667 205.056 72.2773333333333 202.6666666666667 69.3333333333333 202.6666666666667zM186.6666666666667 202.6666666666667C183.7226666666667 202.6666666666667 181.3333333333333 205.056 181.3333333333333 208V245.3333333333334C181.3333333333333 248.2773333333334 183.7226666666667 250.6666666666667 186.6666666666667 250.6666666666667S192 248.2773333333334 192 245.3333333333334V208C192 205.056 189.6106666666667 202.6666666666667 186.6666666666667 202.6666666666667zM218.6666666666667 229.3333333333334H202.6666666666667V208C202.6666666666667 199.1626666666667 195.504 192 186.6666666666667 192S170.6666666666667 199.1626666666667 170.6666666666667 208V229.3333333333334H85.3333333333333V208C85.3333333333333 199.1626666666667 78.1706666666667 192 69.3333333333333 192S53.3333333333333 199.1626666666667 53.3333333333333 208V229.3333333333334H37.3333333333333C22.6133333333333 229.3173333333334 10.6826666666667 217.3866666666667 10.6666666666667 202.6666666666667V37.3333333333334C10.6826666666667 22.6133333333334 22.6133333333333 10.6826666666667 37.3333333333333 10.6666666666667H218.6666666666667C233.3866666666667 10.6826666666667 245.3173333333333 22.6133333333334 245.3333333333333 37.3333333333334V202.6666666666667C245.3173333333333 217.3866666666667 233.3866666666667 229.3173333333334 218.6666666666667 229.3333333333334zM234.6666666666667 37.3333333333333C234.6666666666667 28.496 227.504 21.3333333333333 218.6666666666667 21.3333333333333H37.3333333333333C28.496 21.3333333333333 21.3333333333333 28.496 21.3333333333333 37.3333333333333V160H234.6666666666667V37.3333333333333z" />
    <glyph glyph-name="down-arrow"
      unicode="&#xEA24;"
      horiz-adv-x="256" d="M238.4373333333334 192.6453333333333A5.3333333333333 5.3333333333333 0 0 1 230.896 192.6453333333333L128 89.7493333333333L25.104 192.6453333333333A5.3333333333333 5.3333333333333 0 0 1 17.5626666666667 192.6453333333333L10.0213333333333 185.104A5.3333333333333 5.3333333333333 0 0 1 10.0213333333333 177.5626666666667L124.2293333333333 63.3546666666667A5.3333333333333 5.3333333333333 0 0 1 131.7706666666667 63.3546666666667L245.9786666666667 177.5626666666667A5.3333333333333 5.3333333333333 0 0 1 245.9786666666667 185.104z" />
    <glyph glyph-name="property-agreement"
      unicode="&#xEA25;"
      horiz-adv-x="256" d="M144 64A16.064 16.064 0 0 0 150.4 76.8L193.0666666666667 108.8A16 16 0 0 0 212.2666666666667 108.8L229.3333333333333 96V240A10.6666666666667 10.6666666666667 0 0 1 218.6666666666667 250.6666666666667H37.3333333333333A10.6666666666667 10.6666666666667 0 0 1 26.6666666666667 240V16A10.6666666666667 10.6666666666667 0 0 1 37.3333333333333 5.3333333333333H144zM74.6666666666667 186.6666666666667H180.832A5.3333333333333 5.3333333333333 0 0 0 180.832 176H74.6666666666667A5.3333333333333 5.3333333333333 0 0 0 74.6666666666667 186.6666666666667zM74.6666666666667 133.3333333333334H180.832A5.3333333333333 5.3333333333333 0 0 0 180.832 122.6666666666667H74.6666666666667A5.3333333333333 5.3333333333333 0 0 0 74.6666666666667 133.3333333333334zM117.3333333333333 69.3333333333333H74.6666666666667A5.3333333333333 5.3333333333333 0 0 0 74.6666666666667 80H117.3333333333333A5.3333333333333 5.3333333333333 0 0 0 117.3333333333333 69.3333333333333zM248.5333333333334 68.2666666666667L205.8666666666667 100.2666666666667A5.3333333333333 5.3333333333333 0 0 1 199.4666666666667 100.2666666666667L156.8 68.2666666666667A5.3333333333333 5.3333333333333 0 0 1 154.6666666666667 64V10.6666666666667A5.3333333333333 5.3333333333333 0 0 1 160 5.3333333333333H192V37.3333333333333H213.3333333333334V5.3333333333333H245.3333333333334A5.3333333333333 5.3333333333333 0 0 1 250.6666666666667 10.6666666666667V64A5.3333333333333 5.3333333333333 0 0 1 248.5333333333334 68.2666666666667z" />
    <glyph glyph-name="square-pin"
      unicode="&#xEA26;"
      horiz-adv-x="256" d="M128 43.7333333333334C129.6 43.7333333333334 130.6666666666667 44.2666666666667 131.7333333333333 45.3333333333333C134.9333333333333 48.5333333333334 208 123.2 208 170.6666666666667C208 220.8 167.4666666666667 250.6666666666667 128 250.6666666666667S48 220.8 48 170.6666666666667C48 123.2 121.0666666666667 48.5333333333334 124.2666666666667 45.3333333333333C125.3333333333333 44.8 126.4 43.7333333333334 128 43.7333333333334zM101.3333333333333 170.6666666666667C101.3333333333333 185.6 113.0666666666667 197.3333333333334 128 197.3333333333334S154.6666666666667 185.6 154.6666666666667 170.6666666666667S142.9333333333333 144 128 144S101.3333333333333 155.7333333333334 101.3333333333333 170.6666666666667zM207.4666666666667 76.8C206.4 78.9333333333333 204.8 80 202.6666666666667 80H176C173.3333333333334 76.2666666666667 170.1333333333333 72.5333333333333 167.4666666666667 69.3333333333333H199.4666666666667L226.1333333333334 16H29.8666666666667L56.5333333333333 69.3333333333333H88.5333333333333C85.8666666666667 72.5333333333333 82.6666666666667 76.2666666666667 80 80H53.3333333333333C51.2 80 49.6 78.9333333333333 48.5333333333333 76.8L16.5333333333333 12.8C15.4666666666667 11.2 16 9.0666666666667 16.5333333333333 7.4666666666666C17.6 6.4 19.7333333333333 5.3333333333333 21.3333333333333 5.3333333333333H234.6666666666667C236.2666666666667 5.3333333333333 238.4 6.4 239.4666666666667 8C240.5333333333334 9.6 240.5333333333334 11.7333333333333 239.4666666666667 13.3333333333333L207.4666666666667 76.8z" />
    <glyph glyph-name="arrow-e"
      unicode="&#xEA27;"
      horiz-adv-x="256" d="M243.0986666666667 132.3413333333334L168.432 185.6746666666667A5.3333333333333 5.3333333333333 0 0 1 160 181.3333333333334V138.6666666666667H21.3333333333333A10.6666666666667 10.6666666666667 0 0 1 21.3333333333333 117.3333333333334H160V74.6666666666667A5.3333333333333 5.3333333333333 0 0 1 168.432 70.3253333333334L243.0986666666667 123.6586666666667A5.3333333333333 5.3333333333333 0 0 1 243.0986666666667 132.3413333333334z" />
    <glyph glyph-name="event-create"
      unicode="&#xEA28;"
      horiz-adv-x="256" d="M69.3333333333333 202.6666666666667C66.3893333333333 202.6666666666667 64 205.056 64 208V245.3333333333334C64 248.2773333333334 66.3893333333333 250.6666666666667 69.3333333333333 250.6666666666667S74.6666666666667 248.2773333333334 74.6666666666667 245.3333333333334V208C74.6666666666667 205.056 72.2773333333333 202.6666666666667 69.3333333333333 202.6666666666667zM186.6666666666667 202.6666666666667C183.7226666666667 202.6666666666667 181.3333333333333 205.056 181.3333333333333 208V245.3333333333334C181.3333333333333 248.2773333333334 183.7226666666667 250.6666666666667 186.6666666666667 250.6666666666667S192 248.2773333333334 192 245.3333333333334V208C192 205.056 189.6106666666667 202.6666666666667 186.6666666666667 202.6666666666667zM146.2666666666667 37.3333333333333H21.3333333333333V170.6666666666667H234.6666666666667V102.4693333333333C238.5653333333333 99.9146666666667 242.144 96.912 245.3333333333333 93.5146666666667V224C245.3333333333333 226.944 242.944 229.3333333333334 240 229.3333333333334H202.6666666666666V208.9066666666667C202.6666666666666 200.2453333333334 196.1813333333333 192.4746666666667 187.5253333333333 192.0213333333333C178.2986666666666 191.536 170.6666666666666 198.8746666666667 170.6666666666666 208V229.3333333333334H85.3333333333333V208.9066666666667C85.3333333333333 200.2453333333334 78.848 192.4746666666667 70.192 192.0213333333333C60.9653333333333 191.536 53.3333333333333 198.8746666666667 53.3333333333333 208V229.3333333333334H16C13.056 229.3333333333334 10.6666666666667 226.944 10.6666666666667 224V32C10.6666666666667 29.056 13.056 26.6666666666667 16 26.6666666666667H150.4533333333333C148.7093333333333 30.0746666666666 147.3066666666667 33.648 146.2666666666667 37.3333333333333zM202.6666666666667 101.3333333333333C176.1546666666667 101.3333333333333 154.6666666666667 79.8453333333333 154.6666666666667 53.3333333333333S176.1546666666667 5.3333333333333 202.6666666666667 5.3333333333333S250.6666666666667 26.8213333333333 250.6666666666667 53.3333333333333S229.1786666666667 101.3333333333333 202.6666666666667 101.3333333333333zM229.3333333333333 48H208V26.6666666666667C208 23.7173333333333 205.6106666666667 21.3333333333333 202.6666666666666 21.3333333333333S197.3333333333333 23.7173333333333 197.3333333333333 26.6666666666667V48H176C173.056 48 170.6666666666666 50.3893333333333 170.6666666666666 53.3333333333333S173.0559999999999 58.6666666666667 176 58.6666666666667H197.3333333333333V80C197.3333333333333 82.944 199.7226666666666 85.3333333333334 202.6666666666666 85.3333333333334S208 82.9440000000001 208 80V58.6666666666667H229.3333333333333C232.2773333333333 58.6666666666667 234.6666666666667 56.2773333333334 234.6666666666667 53.3333333333333S232.2773333333334 48 229.3333333333333 48z" />
    <glyph glyph-name="clock"
      unicode="&#xEA29;"
      horiz-adv-x="256" d="M128 250.6666666666667A122.6666666666667 122.6666666666667 0 1 1 250.6666666666667 128A122.8053333333333 122.8053333333333 0 0 1 128 250.6666666666667zM202.6666666666667 122.6666666666667H128A5.3333333333333 5.3333333333333 0 0 0 122.6666666666667 128V202.6666666666667A5.3333333333333 5.3333333333333 0 0 0 133.3333333333334 202.6666666666667V133.3333333333334H202.6666666666667A5.3333333333333 5.3333333333333 0 0 0 202.6666666666667 122.6666666666667z" />
    <glyph glyph-name="g-check"
      unicode="&#xEA2A;"
      horiz-adv-x="256" d="M10.6666666666667 133.3333333333334L32 154.6666666666667L80 122.6666666666667C80 122.6666666666667 133.4666666666667 183.5093333333334 234.6666666666667 213.3333333333334L245.3333333333333 192C245.3333333333333 192 133.536 143.8666666666667 80 42.6666666666667L10.6666666666667 133.3333333333334z" />
  </font>
</defs>
</svg>
